<svg xmlns="http://www.w3.org/2000/svg" viewBox="0 0 1842.8 1770.49"><defs><style>.cls-1{fill:#e2f2f4;}.cls-2{fill:#4a73b8;}.cls-3{fill:#5f7fbf;}.cls-4{fill:#935231;}.cls-5{fill:#784227;}.cls-6{fill:#925131;}.cls-7{fill:#6f3d23;}.cls-8{fill:#fff;}.cls-9{fill:#3b3330;}.cls-10{fill:#33140d;}.cls-11{fill:#33150f;}.cls-12{fill:#241e21;}.cls-13{fill:#86432b;}.cls-14{fill:#753a24;}.cls-15{fill:#1e3e8d;}.cls-16{fill:#60341c;}.cls-17{fill:#001028;}</style></defs><g id="Layer_2" data-name="Layer 2"><g id="Capa_1" data-name="Capa 1"><path d="M1842.8,1412.16a79.17,79.17,0,0,1-79.17,79.16H79.15A79.16,79.16,0,0,1,0,1412.16v-1029A79.16,79.16,0,0,1,79.15,304H1763.63a79.17,79.17,0,0,1,79.17,79.16v1029"/><polyline class="cls-1" points="1786.16 1427.41 56.62 1427.41 56.62 367.91 1786.16 367.91 1786.16 1427.41"/><path class="cls-2" d="M940.18,335.7a18.78,18.78,0,1,1-18.78-18.79,18.78,18.78,0,0,1,18.78,18.79"/><path d="M921.4,304H79.15A79.16,79.16,0,0,0,0,383.17v1029a79.16,79.16,0,0,0,79.15,79.16H1301.06l-20.44-63.91H56.62V367.91H941.83l-6.33-19.8a18.78,18.78,0,1,1-14.1-31.2,18.93,18.93,0,0,1,4.29.49L921.4,304"/><polyline class="cls-1" points="941.84 367.91 56.62 367.91 56.62 1427.41 1280.62 1427.41 941.84 367.91"/><path class="cls-3" d="M921.4,316.91a18.79,18.79,0,1,0,14.1,31.2l-9.81-30.71a18.93,18.93,0,0,0-4.29-.49"/><rect x="795.09" y="1491.31" width="252.6" height="212.7"/><path d="M921.39,1704H745.11s-81.27,3.33-103.79,66.48H921.4Z"/><path d="M921.4,1704h176.29s81.26,3.33,103.78,66.48H921.4Z"/><path class="cls-4" d="M689.06,273.42c-20.52-4.14-29.14,21.74-31.54,40.21-2.86,22,2.79,40.06,7.28,60.85,4.24,19.62,9.67,34.58,25.38,47.87,25.31,21.43,47.2,7.51,51-24.56,1.71-14.36,1.16-29.28,1.18-44C742.42,320.73,722.63,280.18,689.06,273.42Z"/><path class="cls-5" d="M701.86,295.45c-4-6-9-15.05-17.05-14-10,0-19.06,16-18.06,25.07,0,11,11,18.06,11,29.09,1,10-2,18.05,1,27.08,4,13,12,22.07,21.06,31.09,4-9-9-24.07-13-33.09-4-11-1-20.07-2-32.1s-15.09-17.79-9.53-29.59c8.2-17.43,14.54-5.52,24.57-2.51C699.85,296.45,701.61,297.71,701.86,295.45Z"/><path class="cls-5" d="M698.11,313.19c-3.9-2.21-8-1.42-9.22,3.54-1.48,9,11.23,15.65,8.65,26.57-1.21,3.95-4.42,7.8-2.68,12.91.79,4.06,5.77,9.58,9.75,5.53,6-6.11,2.21-23,2.52-29-.68-6.07,0-12.72-6.07-18.4Z"/><path class="cls-4" d="M1120.19,273.42c20.52-4.14,29.14,21.74,31.55,40.21,2.85,22-2.8,40.06-7.29,60.85-4.24,19.62-9.67,34.58-25.38,47.87-25.31,21.43-47.2,7.51-51-24.56-1.7-14.36-1.16-29.28-1.18-44C1066.83,320.73,1086.62,280.18,1120.19,273.42Z"/><path class="cls-5" d="M1108.55,295.45c4-6,9-15.05,17-14,10,0,19.06,16,18.06,25.07,0,11-11,18.06-11,29.09-1,10,2,18.05-1,27.08-4,13-12,22.07-21.06,31.09-4-9,9-24.07,13-33.09,4-11,1-20.07,2-32.1s15.09-17.79,9.53-29.59c-8.2-17.43-14.54-5.52-24.57-2.51C1110.56,296.45,1108.8,297.71,1108.55,295.45Z"/><path class="cls-5" d="M1112.3,313.19c3.9-2.21,8-1.42,9.22,3.54,1.48,9-11.23,15.65-8.65,26.57,1.21,3.95,4.42,7.8,2.68,12.91-.79,4.06-5.77,9.58-9.76,5.53-6-6.11-2.2-23-2.51-29,.68-6.07,0-12.72,6.06-18.4Z"/><rect class="cls-6" x="776.1" y="537.07" width="258.21" height="193.65"/><path class="cls-7" d="M817,678.94c28.54,10.88,56.07,17.45,86.73,12.35,47.43-7.89,93-62.79,130.54-116V527.08H776.1V660.46C789.54,668.22,804.37,674.11,817,678.94Z"/><path class="cls-6" d="M1092.57,126,904.63,0A199.57,199.57,0,0,0,825.3,16.84c-67.68,30-97,89.34-105.13,107.38a654.2,654.2,0,0,0-18.34,129.36c-1.36,33.43-3.25,63.44,3.94,102.63A351.87,351.87,0,0,0,727.05,428c4.41,21.31,15.27,58.86,44.89,94.59,13.23,15.95,65,78.55,142,73.68,66.38-4.19,107-54.91,118.69-69.46,20.57-25.67,28.72-53.21,45-108.29,14.23-48.08,28.81-97.37,29.74-164.95A500.35,500.35,0,0,0,1092.57,126Z"/><path class="cls-8" d="M1036.8,285.19s-8.83,9.71-25.88,14.21a71.27,71.27,0,0,1-27.8,1.64,101.19,101.19,0,0,1-27.56-7.82s10.23-14.56,27-21.31a43.09,43.09,0,0,1,23.59-2.85C1015.49,270.55,1025.85,275.29,1036.8,285.19Z"/><path class="cls-9" d="M1036.82,285.18c-46.22-41.79-81.25,8-81.25,8s38.2-61.19,93.87-8.11Z"/><path d="M1016,286.19a19.38,19.38,0,0,1-5.1,13.21,71.27,71.27,0,0,1-27.8,1.64,19.7,19.7,0,0,1-.6-29.13,43.09,43.09,0,0,1,23.59-2.85A19.64,19.64,0,0,1,1016,286.19Z"/><path class="cls-5" d="M990.6,258.83a18.58,18.58,0,0,1,2.35-1.17,40.69,40.69,0,0,1,6.64-2.14,43.69,43.69,0,0,1,9.86-1.11,46,46,0,0,1,11.36,1.44,49.17,49.17,0,0,1,5.54,1.82,55.88,55.88,0,0,1,5.1,2.43,51.75,51.75,0,0,1,4.42,2.84,28.53,28.53,0,0,1,3.63,3,21.76,21.76,0,0,1,2.82,2.74l2,2.29c1.07,1.28,1.64,2,1.64,2s-.83-.51-2.18-1.47l-2.4-1.73c-.89-.71-2.08-1.26-3.23-2s-2.41-1.61-3.85-2.27-2.86-1.52-4.42-2.22-3.19-1.37-4.87-2a49.78,49.78,0,0,0-5.17-1.56,60.59,60.59,0,0,0-10.5-1.8,73.45,73.45,0,0,0-9.4-.14,61.21,61.21,0,0,0-6.74.62C991.54,258.65,990.6,258.83,990.6,258.83Z"/><path class="cls-10" d="M1004.72,285.1a8.53,8.53,0,1,1-8.52-8.53A8.51,8.51,0,0,1,1004.72,285.1Z"/><path class="cls-8" d="M772.45,285.19s8.83,9.71,25.88,14.21A71.3,71.3,0,0,0,826.14,301a101.39,101.39,0,0,0,27.56-7.82s-10.23-14.56-27-21.31a43.12,43.12,0,0,0-23.6-2.85C793.76,270.55,783.4,275.29,772.45,285.19Z"/><path class="cls-9" d="M772.44,285.18c46.22-41.79,81.24,8,81.24,8s-38.2-61.19-93.87-8.11Z"/><path d="M793.24,286.19a19.37,19.37,0,0,0,5.09,13.21A71.3,71.3,0,0,0,826.14,301a19.72,19.72,0,0,0,.6-29.13,43.12,43.12,0,0,0-23.6-2.85A19.65,19.65,0,0,0,793.24,286.19Z"/><path class="cls-5" d="M818.66,258.83s-.94-.18-2.57-.42a61.71,61.71,0,0,0-6.74-.62,73.43,73.43,0,0,0-9.4.14,60.43,60.43,0,0,0-10.5,1.8,50,50,0,0,0-5.18,1.56c-1.68.59-3.28,1.33-4.87,2s-3,1.54-4.42,2.22-2.63,1.58-3.84,2.27-2.35,1.32-3.24,2l-2.4,1.73c-1.35,1-2.18,1.47-2.18,1.47s.57-.76,1.64-2l2-2.29a21.76,21.76,0,0,1,2.82-2.74,28.53,28.53,0,0,1,3.63-3,48.22,48.22,0,0,1,4.43-2.84,55.68,55.68,0,0,1,5.09-2.43,49.84,49.84,0,0,1,5.54-1.82,46,46,0,0,1,11.37-1.44,43.83,43.83,0,0,1,9.86,1.11,40.52,40.52,0,0,1,6.63,2.14A18.38,18.38,0,0,1,818.66,258.83Z"/><path class="cls-11" d="M821.58,285.1a8.53,8.53,0,1,1-8.53-8.53A8.52,8.52,0,0,1,821.58,285.1Z"/><path class="cls-12" d="M859.85,249.75c-15.49-1-30.49-3.27-45.9-4.52-12.22-1-45.3-2.79-63.52,4.23,4.88-5.19,7.06-10,16.21-13.37,12-4.44,28-4.39,42.2-4.35,15.81,0,31.87-.23,46.85,2.73C871.46,237.59,877.14,250.88,859.85,249.75Z"/><path class="cls-12" d="M961.55,249.75c15.49-1,30.49-3.27,45.9-4.52,12.22-1,45.3-2.79,63.52,4.23-4.88-5.19-7.06-10-16.21-13.37-12-4.44-28-4.39-42.21-4.35-15.8,0-31.86-.23-46.84,2.73C949.94,237.59,944.26,250.88,961.55,249.75Z"/><path class="cls-13" d="M918.51,447.76a25,25,0,0,1-7.46,1.38h-1.43a24.9,24.9,0,0,1-7.46-1.38c-22.1-8-51.31,10.59-66.36,13.18,0,0,24.69,31.25,74.53,28.8,49.85,2.45,74.53-28.8,74.53-28.8C969.82,458.35,940.61,439.79,918.51,447.76Z"/><path class="cls-14" d="M848.25,460.55l1.2.78a15.55,15.55,0,0,0,3.79,1.13,38.1,38.1,0,0,0,6.17.56c2.41.15,5-.28,8.06-.32s6.1-.73,9.45-1.1a93.14,93.14,0,0,1,10.8-.78c3.84.08,7.79.2,11.66.5s7.9.49,11.69.58l6,0c2,0,3.82-.27,5.72-.39,4-.27,7.72-.58,11.57-.49a99.41,99.41,0,0,1,10.91.95l9.53,1.14a49.89,49.89,0,0,0,8,.1,39.05,39.05,0,0,0,6.1-.91c3.32-.88,5.24-1.49,5.24-1.49l-1.29.61c-.86.36-2.07,1.06-3.73,1.63a39.38,39.38,0,0,1-6.16,1.65,37.23,37.23,0,0,1-8.26.66l-9.65-.47c-3.43-.25-7-.28-10.52-.39s-7.58.39-11.36.74c-2,.17-4.05.47-6.05.54l-5.95.09c-4.15-.19-8.08-.53-12-.86s-7.66-.59-11.27-.75-7.37.07-10.64.19c-3.46.16-6.76.66-9.72.46a62.73,62.73,0,0,1-8.2-.45,40.55,40.55,0,0,1-6.23-1.28,13.26,13.26,0,0,1-3.73-1.72Z"/><path class="cls-5" d="M876.39,408.64s-19.77-7.36-10.85-27.86c0,0,2.37-10.53,13.24-22.32,0,0-26.27,14.45-20.2,39.89C858.58,398.35,862.08,409.74,876.39,408.64Z"/><path class="cls-5" d="M878.11,358.31A74.24,74.24,0,0,0,894,275.51c1.67,1.83,18.14,20.59,12.66,46.41C901.44,346.51,880.63,357.08,878.11,358.31Z"/><path class="cls-5" d="M879.37,408.83c7.65.58,13.93,2.75,21.34,3.86-2.57-3.35-7.18-7.73-12.31-8.93C881.55,402.17,877.11,408.65,879.37,408.83Z"/><path class="cls-5" d="M940.17,405.83S960,398.47,951,378c0,0-2.37-10.53-13.23-22.32,0,0,26.27,14.45,20.2,39.89C958,395.54,954.48,406.93,940.17,405.83Z"/><path class="cls-5" d="M940.4,406.42c-7.65.59-13.94,2.75-21.34,3.86,2.57-3.35,7.18-7.73,12.31-8.93C938.22,399.75,942.66,406.25,940.4,406.42Z"/><path class="cls-5" d="M892.94,399.44s.56.26,1.5.81a21.5,21.5,0,0,1,3.68,3.42,64.29,64.29,0,0,0,4.65,5.09,13,13,0,0,0,2.53,1.75l3.32,1.09a18.41,18.41,0,0,0,3,.29,27.23,27.23,0,0,0,2.93-.51c.91-.46,1.82-.85,2.68-1.34.79-.7,1.62-1.15,2.31-1.84s1.38-1.26,1.92-1.92l1.45-1.68c.78-1,1.27-1.52,1.27-1.52s-.28.82-.83,2.19a34.27,34.27,0,0,1-2.74,5.26,23.85,23.85,0,0,1-2.32,2.86,20.63,20.63,0,0,1-3,2.27,14.64,14.64,0,0,1-3.53,1.1,17.94,17.94,0,0,1-3.76-.23l-3.29-1.26a12.06,12.06,0,0,1-3.36-2.76,21.46,21.46,0,0,1-2.47-3.4c-.73-1.14-1.33-2.25-1.9-3.28-1.15-2-2-3.69-2.79-4.73S892.94,399.44,892.94,399.44Z"/><path class="cls-6" d="M1490.67,1088.47c-22.74-148.91-187.23-226.73-187.23-226.73l-270-141.49H776.1l-270,141.49s-164.5,77.82-187.24,226.73l-27.41,337.91H1551.32Z"/><path class="cls-15" d="M1051.24,730.85c-12.57,75.51-137.9,74.93-137.9,74.93-144.45,6-162.81-70.85-162.81-70.85-6.69-9.89-18.64-.2-18.64-.2-25.66,24.41-55.31,39-55.31,39L506.13,863s-164.5,77.81-187.24,226.72l-27.41,337.92H1551.32l-60.65-337.92C1467.93,940.83,1303.44,863,1303.44,863L1087.5,749.85s-15.85-10-25.49-20.57C1062,729.28,1052.59,724.59,1051.24,730.85Z"/><path class="cls-16" d="M888.18,627.8a44.34,44.34,0,0,0-2.1,14.48c0,6.86,1,13.71,3.6,18a2,2,0,1,0,3.43-2.09c-1.87-3-3.05-9.55-3-15.93a40.82,40.82,0,0,1,1.84-13.09,2,2,0,0,0-3.76-1.38Z"/><path class="cls-16" d="M919.05,634.79c1.71,3.13,3.15,9.52,3.13,15.21a25.59,25.59,0,0,1-.72,6.41,8.82,8.82,0,0,1-2.06,4.1,2,2,0,1,0,2.84,2.84,12.93,12.93,0,0,0,3.11-5.93,30,30,0,0,0,.84-7.42c0-6.34-1.43-13-3.6-17.1a2,2,0,0,0-3.54,1.9Z"/><path class="cls-17" d="M749.62,740.52a108.87,108.87,0,0,0,30.76,34.89c33.92,25,76.31,35.53,118.57,35.53a268.65,268.65,0,0,0,80.14-12.41c13.27-4.2,26.74-9.39,38.85-17.12s22.85-18.06,30.47-32.37a3,3,0,0,0-5.31-2.83c-7.09,13.29-17,22.82-28.4,30.13s-24.39,12.33-37.43,16.45A262.62,262.62,0,0,1,899,804.92c-41.28,0-82.39-10.33-115-34.35a102.64,102.64,0,0,1-29.09-33,3,3,0,0,0-5.24,3Z"/><path class="cls-17" d="M724.32,774.6c36.3,52.15,102.94,79.87,178.28,79.86a337.93,337.93,0,0,0,90.31-12.67c24.46-6.86,52.43-26.31,69.16-45.53a3,3,0,0,0-4.55-3.94C1041.73,810.6,1014.1,829.7,991.3,836a332,332,0,0,1-88.7,12.46c-73.94,0-138.54-27.22-173.34-77.28a3,3,0,1,0-4.94,3.44Z"/><path class="cls-17" d="M555.41,1098.17c20.24,60.69,24.73,118.53,24.73,178.77,0,47.66-2.81,96.81-2.81,149.92a3,3,0,1,0,6,0c0-52.9,2.82-102,2.82-149.92,0-60.53-4.51-119.13-25-180.68a3,3,0,0,0-5.71,1.91Z"/><path class="cls-17" d="M1325.6,1190c-.67,12.56-.94,25.58-.94,38.89,0,57.68,5.07,120.89,5.06,175.52,0,7.83-.1,15.48-.33,22.91a3,3,0,0,0,6,.19c.24-7.51.34-15.22.34-23.1,0-55-5.06-118.18-5.06-175.52,0-13.23.27-26.15.93-38.57a3,3,0,1,0-6-.32Z"/><path class="cls-17" d="M1310.07,1310.92c2.07,16.38,5.86,38.58,8.59,54.92,2.18,13,8.61,40.78,11.12,53.57a3,3,0,1,0,5.91-1.16c-2.55-13-9-40.8-11.09-53.4-2.73-16.34-6.52-38.52-8.56-54.69a3,3,0,1,0-6,.76Z"/><path class="cls-17" d="M1008.37,856.06c12.92-3.27,33.1-13.16,50.46-26.3,8.67-6.58,16.59-14,22.45-21.85s9.67-16.31,9.68-25c0-.74,0-1.49-.08-2.22a3,3,0,1,0-6,.46c0,.58.07,1.17.07,1.76,0,6.84-3.12,14.17-8.51,21.41-8,10.87-21,21.33-34.18,29.52s-26.63,14.21-35.36,16.38a3,3,0,0,0,1.47,5.84Z"/><path class="cls-17" d="M584.6,1353.9c7.52-38.69,15.84-77.41,19.68-117,1-10.68,1.73-21.46,1.73-32.54a232.25,232.25,0,0,0-10.08-68.62,3,3,0,1,0-5.76,1.73,226.34,226.34,0,0,1,9.82,66.89c0,10.83-.67,21.41-1.7,32-3.8,39.08-12.06,77.62-19.59,116.38a3,3,0,1,0,5.9,1.15Z"/><path class="cls-17" d="M1093.14,1246.08c24.66-11.25,50.35-32.08,74.77-54.8s47.48-47.35,66.52-66.16a3,3,0,0,0-4.23-4.28c-19.17,18.94-42.18,43.5-66.39,66s-49.6,43-73.17,53.73a3,3,0,1,0,2.5,5.47Z"/><path class="cls-17" d="M1177.15,1223.37c.37,11,6.09,23.71,11.81,35.16,2.87,5.7,5.77,11.06,8,15.54s3.93,8.19,4.27,10a3,3,0,0,0,5.9-1.21c-.67-3.13-2.47-6.88-4.8-11.51-3.5-6.89-8.25-15.44-12.15-24.07s-6.9-17.34-7.07-24.08a3,3,0,1,0-6,.17Z"/><path class="cls-12" d="M1044.47,51.78C987.27,1.17,918.76.44,905.51.55,885.13.71,824.06,4.17,771.94,50.1c-51.74,45.59-62.56,104.76-67.73,133a267.92,267.92,0,0,0-2.38,80.05,331.21,331.21,0,0,0,11.56,123.6,470.76,470.76,0,0,1-5.84-65c-.24-12,0-23.48.56-34.31q2.34-19.83,5-40.16,3-22.23,6.23-43.77l19.39-11.46,29.25-16,.51-37a274.23,274.23,0,0,1,133-32.38,267.48,267.48,0,0,1,140.24,38.12c.42,31.22.42,31.23.42,31.23l29.25,16,17.74,8.3q4.07,23.46,8.14,46.93l3.06,29.68q-7.37,57-14.72,114a358.65,358.65,0,0,0,23.46-127.84C1110.3,257.58,1134.27,131.23,1044.47,51.78Z"/><path d="M817.24,519.22a163.14,163.14,0,0,0,185.84,3.13,69.84,69.84,0,0,1-4,41,80.69,80.69,0,0,1-19,26.37c-29.81,27-88.09,32.62-128.25,10-8.32-4.7-29.49-16.64-36.8-40.54C809.6,541.33,814.55,525.94,817.24,519.22Z"/></g></g></svg>