<svg xmlns="http://www.w3.org/2000/svg" viewBox="0 0 158.47 258.01"><defs><style>.cls-1{fill:#e55353;}.cls-2{fill:#b84444;}.cls-3{fill:#8e4f3a;}.cls-4{fill:#633029;}.cls-5{fill:#545554;}</style></defs><g id="Layer_2" data-name="Layer 2"><g id="Layer_1-2" data-name="Layer 1"><path class="cls-1" d="M102.11,75.45s40.53,11.41,44.3,23.8,13.2,60.53,11.94,80.37S137.4,258,137.4,258s-13.7-9.62-13.7-11.36,13.65-60.67,13.15-67.37-5.18-37.88-5.18-37.88-6,65.82-6,76a53.21,53.21,0,0,1-2.58,17.06s-19.85,7.43-52.38,5.75c0,0-43.49-1-34.65-16.55,6.69-11.77.63-79.15-.38-79.64s-11.9,37.35-10.14,41.65,14.78,61.47,14.78,61.47-2.91.57-14.42,9.51c0,0-25.66-66.52-25.91-70.73S19.73,95,29.53,91.32,79.3,75.45,79.3,75.45Z"/><path class="cls-2" d="M131.4,133.7l-.74-.13c0-.21,3.74-20.19-1.51-31.52l.68-.31C135.18,113.29,131.44,133.5,131.4,133.7Z"/><path class="cls-2" d="M131.26,129.69c0-.16-2.19-15.64-6.92-21.45l.58-.46c4.87,6,7,21.17,7.08,21.81Z"/><path class="cls-3" d="M91.76,2.46s21.29,3.31,18,36.18-22,30.17-23.29,30.14-18.87.6-20.25-39.53C66.27,29.25,65.67-.43,91.76,2.46Z"/><path class="cls-3" d="M101.7,59.1s-.59,13.52.74,16.45S84.87,87.87,73.34,77.4c0,0,2.78-14.7,2-19.9S101.7,59.1,101.7,59.1Z"/><path class="cls-3" d="M110.14,29.36s2.33-2.46,3.19,0S110.15,43,110,43.49c0,0-.42,1-1,.43S110.14,29.36,110.14,29.36Z"/><path class="cls-3" d="M66.84,28.94s-2.28-2.5-3.18,0,2.88,13.64,3,14.16c0,0,.4,1,1,.45S66.84,28.94,66.84,28.94Z"/><path class="cls-4" d="M87.74,69.12a15.18,15.18,0,0,1-4.47-.67,16.64,16.64,0,0,1-7-4.18l.37-.33a16.42,16.42,0,0,0,6.75,4c5.52,1.68,11.39.06,17-4.7l.33.37C95.81,67.85,91.34,69.12,87.74,69.12Z"/><path class="cls-3" d="M102.44,75.55s4.81,1-15.3,20c0,0-14.27-15.57-13.8-18.17S102.44,75.55,102.44,75.55Z"/><polygon class="cls-2" points="87.14 95.57 92.63 104.82 108.9 77.56 101.86 72.71 87.14 95.57"/><polygon class="cls-2" points="87.14 95.57 73.82 74.66 66.27 79.45 79.81 104.82 87.14 95.57"/><path class="cls-2" d="M80.4,240l-.75,0c0-.64,3.84-63.35,2.61-86.48s4.45-51.4,4.51-51.69l.73.15c0,.28-5.73,28.41-4.49,51.5S80.44,239.4,80.4,240Z"/><path class="cls-5" d="M88.53,104.34s22.28,30.81,12,71-43.51,59.13-43.51,59.13H45l3.5-10s39.25-28.26,43.19-60.62-7-59.44-7-59.44Z"/><path class="cls-5" d="M87.14,95.57l4.52,7.62s-4.24,3-10.56,0Z"/><path d="M111.62,19.69C109.66,8.82,99-.23,87.15,0A23.86,23.86,0,0,0,68,10.41a24.85,24.85,0,0,0,0,27c.26,1,.6,2.42,1,4.11.79,3.37,1.15,5.19,1.25,5.17a77.77,77.77,0,0,1-.77-11.46,45.52,45.52,0,0,1,.66-6.37l3.92-1c0-2.36,0-4.72-.08-7.07a98.19,98.19,0,0,1,14.13-1A99.67,99.67,0,0,1,104,21.07V28.9l3.29,1c.07,2.08.1,4.24.07,6.47-.05,3.84-.25,7.48-.56,10.89q.55-3,1.12-6,.66-3.55,1.34-7.1A23.47,23.47,0,0,0,111.62,19.69Z"/></g></g></svg>